<svg id="Layer_1" xmlns="http://www.w3.org/2000/svg" viewBox="0 0 288 288"><style>.st0{fill:#fff}.st1{fill:#6a747c}.st2{fill:#e2231a}</style><path class="st0" d="M145.2 50c-52.6 0-95.4 42.8-95.4 95.4 0 26.5 10.6 51.1 29.8 69.3l1 1 1.1-1c2.8-2.6 5.7-4.9 8.7-7.1 14.6 12.9 33.8 20.8 54.8 20.8s40.2-7.9 54.8-20.7c3 2.2 5.9 4.5 8.7 7.1l1.1 1 1-1c19.3-18.2 29.9-42.9 29.9-69.3-.1-52.6-42.9-95.5-95.5-95.5z"/><path class="st1" d="M145.2 50c-52.6 0-95.4 42.8-95.4 95.4 0 26.5 10.6 51.1 29.8 69.3l1 1 1.1-1c2.8-2.6 5.7-4.9 8.7-7.1 14.6 12.9 33.8 20.8 54.8 20.8s40.2-7.9 54.8-20.7c3 2.2 5.9 4.5 8.7 7.1l1.1 1 1-1c19.3-18.2 29.9-42.9 29.9-69.3-.1-52.6-42.9-95.5-95.5-95.5zm0 175.4c-20 0-38.2-7.4-52.2-19.5 10.3-6.9 21.9-11.7 34.1-14.1v13h9.9v9.9h20.7c3 0 5.4-2.4 5.4-5.4v-17.6c12.3 2.4 23.9 7.2 34.3 14.1-14.1 12.2-32.3 19.6-52.2 19.6zm7.9-20.6v-13.1h6.8v17.6c0 1.3-1 2.3-2.3 2.3H140v-6.8h13.1zm-13.1-3.1v-10.1h10.1v10.1H140zm10.1-13.1H137v13.1h-6.8v-17.3c0-1.5 1.2-2.7 2.7-2.7h17.3v6.9zm49.6 15.2c-11-7.6-23.5-12.7-36.7-15.2h-9.9v-9.9h-20.3c-3.2 0-5.8 2.6-5.8 5.8v4.2c-13.1 2.5-25.5 7.6-36.5 15.1-15.6-14.6-25.3-35.3-25.3-58.3 0-44.1 35.8-79.9 79.9-79.9s79.9 35.8 79.9 79.9c.1 22.9-9.7 43.7-25.3 58.3zm9.9 7.7c-2.4-2.1-4.8-4.1-7.4-6 15.9-15.1 25.9-36.5 25.9-60.1 0-45.8-37.2-83-83-83s-83 37.2-83 83c0 23.6 9.9 44.9 25.8 60.1-2.5 1.9-5 3.9-7.4 6-17.9-17.5-27.8-40.9-27.8-66.1 0-50.9 41.4-92.4 92.4-92.4s92.4 41.4 92.4 92.4c0 25.2-9.9 48.6-27.9 66.1z"/><path class="st2" d="M243.5 111.4H37.6v49.9c0 4.6 3.8 8.4 8.4 8.4h205.9v-49.9c-.1-4.7-3.8-8.4-8.4-8.4z"/><path class="st0" d="M83.4 126.1h4.5v25.8h-3.8l-14.3-18.4v18.4h-4.5v-25.8h4.2L83.4 144v-17.9zM102.2 148.7c2.2 0 3.7-.8 5.3-2.3l2.6 2.3c-1.8 2.2-4.4 3.7-8 3.7-5.6 0-10-4.1-10-10.2 0-5.6 4-10.2 9.5-10.2 6.2 0 9.3 4.9 9.3 10.5 0 .4 0 .8-.1 1.2H96.6c.5 3.2 2.7 5 5.6 5zm4.3-7.9c-.3-2.9-2-5.1-4.9-5.1-2.7 0-4.7 2.1-5.1 5.1h10zM119.4 145.8c0 1.7.9 2.4 2.4 2.4 1 0 1.9-.2 2.8-.7v3.7c-1.1.6-2.4 1-4 1-3.3 0-5.6-1.4-5.6-5.7v-10.3h-2.5v-3.8h2.5V127h4.5v5.4h5.2v3.8h-5.2v9.6zM147.6 145.8l4-13.4h4.5l-6.4 19.6h-4l-4.4-13.3-4.4 13.3h-4l-6.3-19.6h4.6l3.9 13.4 4.3-13.4h3.8l4.4 13.4zM167.4 152.4c-5.9 0-10.3-4.5-10.3-10.1s4.4-10.2 10.4-10.2 10.4 4.5 10.4 10.2c0 5.5-4.5 10.1-10.5 10.1zm0-16.5c-3.6 0-5.9 2.8-5.9 6.2 0 3.5 2.5 6.3 5.9 6.3 3.6 0 5.9-2.8 5.9-6.2.1-3.4-2.4-6.3-5.9-6.3zM185.8 151.9h-4.5v-19.5h4.5v4.4c1.2-2.9 3.5-4.9 6.9-4.8v4.7h-.3c-3.9 0-6.6 2.5-6.6 7.7v7.5zM213.5 151.9h-5.2l-5.9-8.4-2.7 2.8v5.6h-4.5v-27h4.5V141l8.1-8.6h5.4l-7.8 7.9 8.1 11.6zM220.9 129.8h4.2v7.1h7.1v4.1h-7.1v7.1h-4.2V141h-7.1v-4.1h7.1v-7.1z"/><g><path class="st2" d="M121.3 92.1c-2.2 0-4 1.5-4 3.4s1.8 3.4 4 3.4 4-1.5 4-3.4-1.8-3.4-4-3.4m0 9.1c-3.5 0-6.3-2.5-6.3-5.7s2.8-5.7 6.3-5.7 6.3 2.5 6.3 5.7-2.8 5.7-6.3 5.7M143.8 101.2c-1.3 0-2.3-1-2.3-2.3v-4.7c0-1.1-1-2-2.2-2-1.2 0-2.2.9-2.2 2v7c-1.3 0-2.3-1-2.3-2.3v-4.8c0-1.1-1-2-2.2-2-1.2 0-2.2.9-2.2 2v4.7c0 1.3-1 2.3-2.3 2.3v-7c0-2.4 2-4.3 4.5-4.3 1.3 0 2.5.5 3.3 1.4.8-.9 2-1.4 3.3-1.4 2.5 0 4.5 1.9 4.5 4.3l.1 7.1zM151.2 101.1c-.6 0-1.2 0-1.7-.2-1.2-.3-1.9-1.6-1.6-2.8 0-.1.1-.3.1-.4.6.7 1.7 1.1 3.1 1.1 2.1 0 3.7-1.5 3.7-3.3 0-1.9-1.6-3.5-3.7-3.5-2 0-4 1.1-4 3.5v7.4c0 1.2-1 2.2-2.3 2.2v-9.6c0-3.3 2.6-5.8 6.2-5.8 1.6 0 3.1.6 4.2 1.6 1.1 1.1 1.8 2.5 1.8 4.1.2 3.3-2.4 5.7-5.8 5.7M167.5 87.6h-4.9v13.5h-.1c-1.2 0-2.2-1-2.2-2.3V87.6h-4.9c-1.2 0-2.2-1-2.2-2.3h16.6c-.1 1.3-1.1 2.3-2.3 2.3M182 87.7l-3.2 7.1h6.1l-3.3-7.2.4.1zm5 12l-1.2-2.6h-8.1l-1.2 2.7c-.6 1.1-2.1 1.4-3.2 1.4l6.6-14.5c.4-.8 1-1.3 1.8-1.3s1.5.5 1.8 1.3L190 101c-1.1.1-2.5-.2-3-1.3M112.4 89.6c-1.2-1.3-3-2.2-5-2.2-3.5 0-6.4 2.6-6.4 5.7 0 3.2 2.9 5.8 6.4 5.8 1.7 0 3.3-.6 4.5-1.7.8-.7 2.1-.6 2.9 0-.6 1-1.5 1.8-2.5 2.4-1.5.9-3.1 1.4-4.9 1.4-4.8 0-8.7-3.6-8.7-8s3.9-8 8.7-8c3.4 0 6.5 1.9 7.9 4.7-.9.8-2.1.7-2.9-.1M191.4 99.3h-.1s.1.1.3.4c-.1.1-.2.1-.3 0l-.3-.3h-.3v-.1c0-.1.1-.2.2-.2H191.2s.1 0 .1-.1c0 0 0-.1-.3-.1h-.4v.8c0 .1-.1.2-.2.2h-.1v-1c0-.1.1-.2.2-.2h.5c.5 0 .6.3.6.4l-.2.2m-.5-.9c-.5 0-.9.4-.9.8 0 .5.4.8.9.8s1-.4 1-.8c0-.5-.4-.8-1-.8m0 1.9c-.7 0-1.2-.5-1.2-1.1 0-.6.5-1.1 1.2-1.1s1.2.5 1.2 1.1c0 .6-.5 1.1-1.2 1.1M170.5 85.4V99c0 1.2 1 2.2 2.3 2.2V87.6c-.1-1.2-1.1-2.2-2.3-2.2"/></g><path class="st1" d="M210 209.3h-.1s.1.1.3.4c-.1.1-.2.1-.3 0l-.3-.3h-.3v-.1c0-.1.1-.2.2-.2H209.8s.1 0 .1-.1c0 0 0-.1-.3-.1h-.4v.8c0 .1-.1.2-.2.2h-.1v-1c0-.1.1-.2.2-.2h.5c.5 0 .6.3.6.4l-.2.2m-.5-1c-.5 0-.9.4-.9.8 0 .5.4.8.9.8s1-.4 1-.8-.4-.8-1-.8m0 1.9c-.7 0-1.2-.5-1.2-1.1 0-.6.5-1.1 1.2-1.1s1.2.5 1.2 1.1c0 .6-.5 1.1-1.2 1.1"/></svg>