<svg id="Layer_1" xmlns="http://www.w3.org/2000/svg" viewBox="0 0 288 288"><style>.st0{fill:#fff}.st1{fill:#6a747c}.st2{fill:#e2231a}</style><path class="st0" d="M144.7 50.4c-52.6 0-95.4 42.8-95.4 95.4 0 26.5 10.6 51.1 29.8 69.3l1 1 1.1-1c2.8-2.6 5.7-4.9 8.7-7.1 14.6 12.9 33.8 20.8 54.8 20.8s40.2-7.9 54.8-20.8c3 2.2 5.9 4.5 8.7 7.1l1.1 1 1-1c19.3-18.2 29.9-42.9 29.9-69.3 0-52.6-42.9-95.4-95.5-95.4z"/><path class="st1" d="M144.7 50.4c-52.6 0-95.4 42.8-95.4 95.4 0 26.5 10.6 51.1 29.8 69.3l1 1 1.1-1c2.8-2.6 5.7-4.9 8.7-7.1 14.6 12.9 33.8 20.8 54.8 20.8s40.2-7.9 54.8-20.8c3 2.2 5.9 4.5 8.7 7.1l1.1 1 1-1c19.3-18.2 29.9-42.9 29.9-69.3 0-52.6-42.9-95.4-95.5-95.4zm0 175.3c-20 0-38.2-7.4-52.2-19.5 11.2-7.5 23.8-12.5 37.1-14.6v24.3h22.7c4.1 0 7.4-3.3 7.4-7.4v-16.9c13.3 2.1 26 7.1 37.2 14.7-14 12-32.2 19.4-52.2 19.4zm-79.9-79.9c0-44.1 35.8-79.9 79.9-79.9s79.9 35.8 79.9 79.9c0 23-9.8 43.7-25.3 58.3-11.9-8.1-25.3-13.4-39.5-15.6h-6.5v-4.4c0-5.3-3.8-9.4-8.8-9.4-5 0-8.6 3.9-8.6 9.4v4.4h-6.2c-14.2 2.2-27.7 7.5-39.5 15.6-15.6-14.6-25.4-35.3-25.4-58.3zm85.4 42.7h-11.3v-4.4c0-3.7 2.3-6.3 5.5-6.3 3.3 0 5.7 2.6 5.7 6.3v4.4zm6.5 3v16.9c0 2.4-2 4.4-4.4 4.4h-19.6v-21.2h24zm52.5 20.4c-2.4-2.1-4.8-4.1-7.4-6 15.9-15.1 25.9-36.5 25.9-60.1 0-45.8-37.2-83-83-83s-83 37.2-83 83c0 23.6 9.9 44.9 25.8 60.1-2.5 1.9-5 3.9-7.4 6-17.9-17.5-27.8-40.9-27.8-66.1 0-50.9 41.4-92.4 92.4-92.4s92.4 41.4 92.4 92.4c0 25.1-9.9 48.5-27.9 66.1z"/><circle class="st1" cx="144.7" cy="201.5" r="2.5"/><g><path class="st2" d="M120.9 92.4c-2.2 0-4 1.5-4 3.4s1.8 3.4 4 3.4 4-1.5 4-3.4-1.8-3.4-4-3.4m0 9.1c-3.5 0-6.3-2.5-6.3-5.7s2.8-5.7 6.3-5.7 6.3 2.5 6.3 5.7c-.1 3.2-2.8 5.7-6.3 5.7M143.3 101.5c-1.3 0-2.3-1-2.3-2.3v-4.7c0-1.1-1-2-2.2-2-1.2 0-2.2.9-2.2 2v7c-1.3 0-2.3-1-2.3-2.3v-4.8c0-1.1-1-2-2.2-2-1.2 0-2.2.9-2.2 2v4.7c0 1.3-1 2.3-2.3 2.3v-7c0-2.4 2-4.3 4.5-4.3 1.3 0 2.5.5 3.3 1.4.8-.9 2-1.4 3.3-1.4 2.5 0 4.5 1.9 4.5 4.3l.1 7.1zM150.8 101.5c-.6 0-1.2 0-1.7-.2-1.2-.3-1.9-1.6-1.6-2.8 0-.1.1-.3.1-.4.6.7 1.7 1.1 3.1 1.1 2.1 0 3.7-1.5 3.7-3.3 0-1.9-1.6-3.5-3.7-3.5-2 0-4 1.1-4 3.5v7.4c0 1.2-1 2.2-2.3 2.2v-9.6c0-3.3 2.6-5.8 6.2-5.8 1.6 0 3.1.6 4.2 1.6 1.1 1.1 1.8 2.5 1.8 4.1.2 3.2-2.5 5.7-5.8 5.7M167 88h-4.9v13.5h-.1c-1.2 0-2.2-1-2.2-2.3V88h-4.9c-1.2 0-2.2-1-2.2-2.3h16.6c0 1.2-1 2.3-2.3 2.3M181.5 88.1l-3.2 7.1h6.1l-3.3-7.2.4.1zm5.1 11.9l-1.2-2.6h-8.1l-1.2 2.7c-.6 1.1-2.1 1.4-3.2 1.4l6.6-14.5c.4-.8 1-1.3 1.8-1.3s1.5.5 1.8 1.3l6.5 14.3c-1.2.2-2.5-.2-3-1.3M112 90c-1.2-1.3-3-2.2-5-2.2-3.5 0-6.4 2.6-6.4 5.7 0 3.2 2.9 5.8 6.4 5.8 1.7 0 3.3-.6 4.5-1.7.8-.7 2.1-.6 2.9 0-.6 1-1.5 1.8-2.5 2.4-1.5.9-3.1 1.4-4.9 1.4-4.8 0-8.7-3.6-8.7-8s3.9-8 8.7-8c3.4 0 6.5 1.9 7.9 4.7-.9.7-2.1.7-2.9-.1M191 99.6h-.1s.1.1.3.4c-.1.1-.2.1-.3 0l-.3-.3h-.3v-.1c0-.1.1-.2.2-.2H190.8s.1 0 .1-.1c0 0 0-.1-.3-.1h-.4v.8c0 .1-.1.2-.2.2h-.1v-1c0-.1.1-.2.2-.2h.5c.5 0 .6.3.6.4 0 0-.1.2-.2.2m-.5-.9c-.5 0-.9.4-.9.8 0 .5.4.8.9.8s1-.4 1-.8-.5-.8-1-.8m0 1.9c-.7 0-1.2-.5-1.2-1.1 0-.6.5-1.1 1.2-1.1s1.2.5 1.2 1.1c0 .6-.5 1.1-1.2 1.1M170 85.7v13.6c0 1.2 1 2.2 2.3 2.2V87.9c0-1.2-1-2.2-2.3-2.2M243.5 111.7H37.6v49.9c0 4.6 3.8 8.4 8.4 8.4h205.9v-49.9c-.1-4.7-3.8-8.4-8.4-8.4z"/><g><path class="st0" d="M79.8 139.4c5.5 1.3 8.3 3.3 8.3 7.6 0 4.9-3.8 7.8-9.2 7.8-4 0-7.7-1.4-10.8-4.1l2.7-3.2c2.5 2.1 4.9 3.4 8.2 3.4 2.8 0 4.6-1.3 4.6-3.3 0-1.9-1-2.9-5.8-4-5.5-1.3-8.6-3-8.6-7.8 0-4.5 3.7-7.5 8.8-7.5 3.8 0 6.8 1.1 9.4 3.3L85 135c-2.3-1.7-4.7-2.7-7-2.7-2.7 0-4.2 1.4-4.2 3.1-.1 1.9 1.1 2.8 6 4zM100.9 151.2c2.2 0 3.7-.8 5.3-2.3l2.6 2.3c-1.8 2.2-4.4 3.7-8 3.7-5.6 0-10-4.1-10-10.2 0-5.6 4-10.2 9.5-10.2 6.2 0 9.3 4.9 9.3 10.5 0 .4 0 .8-.1 1.2H95.3c.5 3.2 2.7 5 5.6 5zm4.4-7.9c-.3-2.9-2-5.1-4.9-5.1-2.7 0-4.7 2.1-5.1 5.1h10zM122.1 154.8c-5.8 0-10.1-4.5-10.1-10.1s4.3-10.2 10.1-10.2c3.7 0 6 1.4 7.8 3.4l-2.8 3c-1.4-1.4-2.8-2.4-5.1-2.4-3.2 0-5.6 2.8-5.6 6.2 0 3.5 2.4 6.3 5.8 6.3 2.1 0 3.7-1 5.1-2.4l2.7 2.7c-1.8 2-4.1 3.5-7.9 3.5zM145.6 134.9h4.5v19.5h-4.5v-3c-1.3 1.8-3.1 3.4-6.1 3.4-4.4 0-6.9-3-6.9-7.5v-12.4h4.5V146c0 3 1.5 4.8 4.2 4.8 2.6 0 4.4-1.8 4.4-4.8v-11.1zM159.1 154.4h-4.5v-19.5h4.5v4.4c1.2-2.9 3.5-4.9 6.9-4.8v4.7h-.3c-3.9 0-6.6 2.5-6.6 7.7v7.5zM168.5 131.9v-4.2h4.8v4.2h-4.8zm.2 22.5v-19.5h4.5v19.5h-4.5zM183 148.3c0 1.7.9 2.4 2.4 2.4 1 0 1.9-.2 2.8-.7v3.7c-1.1.6-2.4 1-4 1-3.3 0-5.6-1.4-5.6-5.7v-10.3h-2.5v-3.8h2.5v-5.4h4.5v5.4h5.2v3.8H183v9.6zM202.5 154.9c-1.6 4-3.3 5.5-6.4 5.5-1.9 0-3.2-.4-4.6-1.2l1.5-3.3c.8.4 1.7.7 2.6.7 1.3 0 2-.6 2.8-2.3l-8.1-19.5h4.8l5.5 14.5 5.1-14.5h4.7l-7.9 20.1zM219.1 132.3h4.2v7.1h7.1v4.1h-7.1v7.1h-4.2v-7.1H212v-4.1h7.1v-7.1z"/></g></g><path class="st1" d="M209.6 209.7h-.1s.1.1.3.4c-.1.1-.2.1-.3 0l-.3-.3h-.3v-.1c0-.1.1-.2.2-.2H209.4s.1 0 .1-.1c0 0 0-.1-.3-.1h-.4v.8c0 .1-.1.2-.2.2h-.1v-1c0-.1.1-.2.2-.2h.5c.5 0 .6.3.6.4l-.2.2m-.5-1c-.5 0-.9.4-.9.8 0 .5.4.8.9.8s1-.4 1-.8-.4-.8-1-.8m0 2c-.7 0-1.2-.5-1.2-1.1 0-.6.5-1.1 1.2-1.1s1.2.5 1.2 1.1c0 .6-.5 1.1-1.2 1.1"/></svg>